<?xml version="1.0" encoding="utf-8"?>
<!DOCTYPE svg
  PUBLIC '-//W3C//DTD SVG 1.0//EN'
  'http://www.w3.org/TR/2001/REC-SVG-20010904/DTD/svg10.dtd'>
<svg width="1190.5511811023623" height="841.8897637795277" preserveAspectRatio="xMinYMin meet" viewBox="0 0 1190 841" xmlns="http://www.w3.org/2000/svg" version="1.0" fill-rule="evenodd" xmlns:xlink="http://www.w3.org/1999/xlink">
	<title>...</title>
	<desc>...</desc>
	<clipPath id="clip">
		<rect x="0" y="0" width="1190.5511811023623" height="841.8897637795277"/>
	</clipPath>
	<g id="group" transform="scale(1,-1) translate(0,-841)" style="clip-path: url(#clip)">
		<g transform="">
			<rect x="0" y="0" width="1190.5511811023623" height="841.8897637795277" style="stroke: none; stroke-linecap: butt; stroke-width: 1; fill: rgb(100%,100%,100%); fill-rule: evenodd;"/>
			<text x="45" y="790" style="font-family: McdBold; font-size: 12px;fill: rgb(40%,18%,24%); stroke:none;" transform="translate(0,1580) scale(1,-1)">VITE &amp; GOURMAND  /  MODÈLE CONCEPTUEL DE DONNÉES</text>
			<text x="45" y="748" style="font-family: McdBold; font-size: 29px;fill: rgb(16%,17%,14%); stroke:none;" transform="translate(0,1496) scale(1,-1)">Catalogue et composition</text>
			<text x="45" y="721" style="font-family: McdBody; font-size: 12px;fill: rgb(16%,17%,14%); stroke:none;" transform="translate(0,1442) scale(1,-1)">Entités métier et associations : les tables de liaison SQL ne sont pas des entités supplémentaires.</text>
			<path d="M 45,48 L 1145.551181,48 Z" style="stroke: rgb(32%,41%,34%); stroke-linecap: butt; stroke-width: 1;"/>
			<text x="45" y="28" style="font-family: McdBody; font-size: 10px;fill: rgb(16%,17%,14%); stroke:none;" transform="translate(0,56) scale(1,-1)">01 octobre 2026 | Identifiants soulignés | Cardinalités près de chaque entité</text>
			<text x="1126.0931732898623" y="28" style="font-family: McdBody; font-size: 10px;fill: rgb(16%,17%,14%); stroke:none;" transform="translate(0,56) scale(1,-1)">1 / 3</text>
			<rect x="65" y="400" width="265" height="235" style="stroke: rgb(40%,18%,24%); stroke-linecap: butt; stroke-width: 1.4; fill: rgb(100%,100%,100%); fill-rule: evenodd;"/>
			<rect x="65" y="602" width="265" height="33" style="stroke: none; stroke-linecap: butt; stroke-width: 1; fill: rgb(40%,18%,24%); fill-rule: evenodd;"/>
			<text x="77" y="613" style="font-family: McdBold; font-size: 12px;fill: rgb(100%,100%,100%); stroke:none;" transform="translate(0,1226) scale(1,-1)">MENU</text>
			<text x="77" y="582" style="font-family: McdBody; font-size: 11px;fill: rgb(16%,17%,14%); stroke:none;" transform="translate(0,1164) scale(1,-1)">Identifiant menu</text>
			<path d="M 77,580 L 155.272949,580 Z" style="stroke: rgb(16%,17%,14%); stroke-linecap: butt; stroke-width: 1;"/>
			<text x="77" y="565" style="font-family: McdBody; font-size: 11px;fill: rgb(16%,17%,14%); stroke:none;" transform="translate(0,1130) scale(1,-1)">Titre</text>
			<text x="77" y="548" style="font-family: McdBody; font-size: 11px;fill: rgb(16%,17%,14%); stroke:none;" transform="translate(0,1096) scale(1,-1)">Description</text>
			<text x="77" y="531" style="font-family: McdBody; font-size: 11px;fill: rgb(16%,17%,14%); stroke:none;" transform="translate(0,1062) scale(1,-1)">Prix forfaitaire</text>
			<text x="77" y="514" style="font-family: McdBody; font-size: 11px;fill: rgb(16%,17%,14%); stroke:none;" transform="translate(0,1028) scale(1,-1)">Nombre minimum de convives</text>
			<text x="77" y="497" style="font-family: McdBody; font-size: 11px;fill: rgb(16%,17%,14%); stroke:none;" transform="translate(0,994) scale(1,-1)">Thème</text>
			<text x="77" y="480" style="font-family: McdBody; font-size: 11px;fill: rgb(16%,17%,14%); stroke:none;" transform="translate(0,960) scale(1,-1)">Régime</text>
			<text x="77" y="463" style="font-family: McdBody; font-size: 11px;fill: rgb(16%,17%,14%); stroke:none;" transform="translate(0,926) scale(1,-1)">Stock disponible</text>
			<text x="77" y="446" style="font-family: McdBody; font-size: 11px;fill: rgb(16%,17%,14%); stroke:none;" transform="translate(0,892) scale(1,-1)">Conditions</text>
			<text x="77" y="429" style="font-family: McdBody; font-size: 11px;fill: rgb(16%,17%,14%); stroke:none;" transform="translate(0,858) scale(1,-1)">Délai de commande</text>
			<text x="77" y="412" style="font-family: McdBody; font-size: 11px;fill: rgb(16%,17%,14%); stroke:none;" transform="translate(0,824) scale(1,-1)">Actif</text>
			<rect x="800" y="460" width="265" height="116" style="stroke: rgb(40%,18%,24%); stroke-linecap: butt; stroke-width: 1.4; fill: rgb(100%,100%,100%); fill-rule: evenodd;"/>
			<rect x="800" y="543" width="265" height="33" style="stroke: none; stroke-linecap: butt; stroke-width: 1; fill: rgb(40%,18%,24%); fill-rule: evenodd;"/>
			<text x="812" y="554" style="font-family: McdBold; font-size: 12px;fill: rgb(100%,100%,100%); stroke:none;" transform="translate(0,1108) scale(1,-1)">PLAT</text>
			<text x="812" y="523" style="font-family: McdBody; font-size: 11px;fill: rgb(16%,17%,14%); stroke:none;" transform="translate(0,1046) scale(1,-1)">Identifiant plat</text>
			<path d="M 812,521 L 880.492188,521 Z" style="stroke: rgb(16%,17%,14%); stroke-linecap: butt; stroke-width: 1;"/>
			<text x="812" y="506" style="font-family: McdBody; font-size: 11px;fill: rgb(16%,17%,14%); stroke:none;" transform="translate(0,1012) scale(1,-1)">Nom</text>
			<text x="812" y="489" style="font-family: McdBody; font-size: 11px;fill: rgb(16%,17%,14%); stroke:none;" transform="translate(0,978) scale(1,-1)">Description</text>
			<text x="812" y="472" style="font-family: McdBody; font-size: 11px;fill: rgb(16%,17%,14%); stroke:none;" transform="translate(0,944) scale(1,-1)">Type de plat</text>
			<rect x="450" y="490" width="210" height="64" rx="22" ry="22" style="stroke: rgb(32%,41%,34%); stroke-linecap: butt; stroke-width: 1.3; fill: rgb(96%,95%,92%); fill-rule: evenodd;"/>
			<text x="522.9130859375" y="525" style="font-family: McdBold; font-size: 11px;fill: rgb(16%,17%,14%); stroke:none;" transform="translate(0,1050) scale(1,-1)">COMPOSER</text>
			<text x="516.6455078125" y="504" style="font-family: McdBody; font-size: 10px;fill: rgb(16%,17%,14%); stroke:none;" transform="translate(0,1008) scale(1,-1)">Ordre d’affichage</text>
			<polyline points="330 522, 450 522" style="stroke: rgb(32%,41%,34%); stroke-linecap: butt; stroke-width: 1.4; fill: None; fill-rule: evenodd;"/>
			<text x="348" y="534" style="font-family: McdBold; font-size: 12px;fill: rgb(32%,41%,34%); stroke:none;" transform="translate(0,1068) scale(1,-1)">0,N</text>
			<polyline points="660 522, 800 522" style="stroke: rgb(32%,41%,34%); stroke-linecap: butt; stroke-width: 1.4; fill: None; fill-rule: evenodd;"/>
			<text x="754" y="534" style="font-family: McdBold; font-size: 12px;fill: rgb(32%,41%,34%); stroke:none;" transform="translate(0,1068) scale(1,-1)">0,N</text>
			<rect x="110" y="285" width="175" height="48" rx="22" ry="22" style="stroke: rgb(32%,41%,34%); stroke-linecap: butt; stroke-width: 1.3; fill: rgb(96%,95%,92%); fill-rule: evenodd;"/>
			<text x="166.640380859375" y="304" style="font-family: McdBold; font-size: 11px;fill: rgb(16%,17%,14%); stroke:none;" transform="translate(0,608) scale(1,-1)">ILLUSTRER</text>
			<rect x="65" y="100" width="265" height="99" style="stroke: rgb(40%,18%,24%); stroke-linecap: butt; stroke-width: 1.4; fill: rgb(100%,100%,100%); fill-rule: evenodd;"/>
			<rect x="65" y="166" width="265" height="33" style="stroke: none; stroke-linecap: butt; stroke-width: 1; fill: rgb(40%,18%,24%); fill-rule: evenodd;"/>
			<text x="77" y="177" style="font-family: McdBold; font-size: 12px;fill: rgb(100%,100%,100%); stroke:none;" transform="translate(0,354) scale(1,-1)">IMAGE</text>
			<text x="77" y="146" style="font-family: McdBody; font-size: 11px;fill: rgb(16%,17%,14%); stroke:none;" transform="translate(0,292) scale(1,-1)">Identifiant image</text>
			<path d="M 77,144 L 157.716797,144 Z" style="stroke: rgb(16%,17%,14%); stroke-linecap: butt; stroke-width: 1;"/>
			<text x="77" y="129" style="font-family: McdBody; font-size: 11px;fill: rgb(16%,17%,14%); stroke:none;" transform="translate(0,258) scale(1,-1)">Chemin de l’image</text>
			<text x="77" y="112" style="font-family: McdBody; font-size: 11px;fill: rgb(16%,17%,14%); stroke:none;" transform="translate(0,224) scale(1,-1)">Texte alternatif</text>
			<polyline points="197 400, 197 333" style="stroke: rgb(32%,41%,34%); stroke-linecap: butt; stroke-width: 1.4; fill: None; fill-rule: evenodd;"/>
			<text x="209" y="375" style="font-family: McdBold; font-size: 12px;fill: rgb(32%,41%,34%); stroke:none;" transform="translate(0,750) scale(1,-1)">0,N</text>
			<polyline points="197 285, 197 199" style="stroke: rgb(32%,41%,34%); stroke-linecap: butt; stroke-width: 1.4; fill: None; fill-rule: evenodd;"/>
			<text x="209" y="212" style="font-family: McdBold; font-size: 12px;fill: rgb(32%,41%,34%); stroke:none;" transform="translate(0,424) scale(1,-1)">1,1</text>
			<rect x="845" y="285" width="175" height="48" rx="22" ry="22" style="stroke: rgb(32%,41%,34%); stroke-linecap: butt; stroke-width: 1.3; fill: rgb(96%,95%,92%); fill-rule: evenodd;"/>
			<text x="903.778076171875" y="304" style="font-family: McdBold; font-size: 11px;fill: rgb(16%,17%,14%); stroke:none;" transform="translate(0,608) scale(1,-1)">CONTENIR</text>
			<rect x="800" y="117" width="265" height="82" style="stroke: rgb(40%,18%,24%); stroke-linecap: butt; stroke-width: 1.4; fill: rgb(100%,100%,100%); fill-rule: evenodd;"/>
			<rect x="800" y="166" width="265" height="33" style="stroke: none; stroke-linecap: butt; stroke-width: 1; fill: rgb(40%,18%,24%); fill-rule: evenodd;"/>
			<text x="812" y="177" style="font-family: McdBold; font-size: 12px;fill: rgb(100%,100%,100%); stroke:none;" transform="translate(0,354) scale(1,-1)">ALLERGÈNE</text>
			<text x="812" y="146" style="font-family: McdBody; font-size: 11px;fill: rgb(16%,17%,14%); stroke:none;" transform="translate(0,292) scale(1,-1)">Identifiant allergène</text>
			<path d="M 812,144 L 908.013672,144 Z" style="stroke: rgb(16%,17%,14%); stroke-linecap: butt; stroke-width: 1;"/>
			<text x="812" y="129" style="font-family: McdBody; font-size: 11px;fill: rgb(16%,17%,14%); stroke:none;" transform="translate(0,258) scale(1,-1)">Nom</text>
			<polyline points="932 460, 932 333" style="stroke: rgb(32%,41%,34%); stroke-linecap: butt; stroke-width: 1.4; fill: None; fill-rule: evenodd;"/>
			<text x="944" y="430" style="font-family: McdBold; font-size: 12px;fill: rgb(32%,41%,34%); stroke:none;" transform="translate(0,860) scale(1,-1)">0,N</text>
			<polyline points="932 285, 932 199" style="stroke: rgb(32%,41%,34%); stroke-linecap: butt; stroke-width: 1.4; fill: None; fill-rule: evenodd;"/>
			<text x="944" y="212" style="font-family: McdBold; font-size: 12px;fill: rgb(32%,41%,34%); stroke:none;" transform="translate(0,424) scale(1,-1)">0,N</text>
			<text x="395" y="370" style="font-family: McdBody; font-size: 12px;fill: rgb(16%,17%,14%); stroke:none;" transform="translate(0,740) scale(1,-1)">Lecture : un menu peut utiliser plusieurs plats;</text>
			<text x="395" y="351" style="font-family: McdBody; font-size: 12px;fill: rgb(16%,17%,14%); stroke:none;" transform="translate(0,702) scale(1,-1)">un plat peut appartenir à plusieurs menus.</text>
			<text x="395" y="226" style="font-family: McdBody; font-size: 12px;fill: rgb(16%,17%,14%); stroke:none;" transform="translate(0,452) scale(1,-1)">Les minima à zéro autorisent un catalogue</text>
			<text x="395" y="207" style="font-family: McdBody; font-size: 12px;fill: rgb(16%,17%,14%); stroke:none;" transform="translate(0,414) scale(1,-1)">en cours de préparation et des plats non affectés.</text>
			<text x="395" y="178" style="font-family: McdBody; font-size: 12px;fill: rgb(16%,17%,14%); stroke:none;" transform="translate(0,356) scale(1,-1)">Une image appartient à un seul menu.</text>
			<text x="395" y="149" style="font-family: McdBody; font-size: 12px;fill: rgb(16%,17%,14%); stroke:none;" transform="translate(0,298) scale(1,-1)">Thème et régime restent des propriétés du menu,</text>
			<text x="395" y="130" style="font-family: McdBody; font-size: 12px;fill: rgb(16%,17%,14%); stroke:none;" transform="translate(0,260) scale(1,-1)">conformément au périmètre implémenté.</text>
		</g>
	</g>
</svg>
