<svg xmlns="http://www.w3.org/2000/svg" viewBox="0 0 800 650" role="img" aria-labelledby="title"><title id="title">Illustration d’une table gourmande, légumes et assiette à partager</title><defs><pattern id="cloth" width="80" height="80" patternUnits="userSpaceOnUse" patternTransform="rotate(-12)"><rect width="80" height="80" fill="#c2cbb8"/><path d="M0 0h80M0 0v80" stroke="#f7f3eb" opacity=".35" stroke-width="24"/></pattern><filter id="shadow"><feDropShadow dx="2" dy="12" stdDeviation="15" flood-color="#303b2b" flood-opacity=".15"/></filter></defs><rect width="800" height="650" fill="#e9dfcb"/><path d="M480 0h320v650H280z" fill="url(#cloth)"/><g transform="translate(375 338) rotate(-18)" filter="url(#shadow)"><ellipse rx="235" ry="238" fill="#f8f5ed"/><circle r="210" fill="none" stroke="#672f3e" stroke-width="2"/><circle r="183" fill="none" stroke="#ddd3be" stroke-width="2"/><circle r="170" fill="#e7dcc3"/><g fill="#526b57"><ellipse cx="-92" cy="-80" rx="38" ry="63" transform="rotate(-20)"/><ellipse cx="57" cy="-80" rx="34" ry="65" transform="rotate(30)"/><ellipse cx="63" cy="82" rx="33" ry="60" transform="rotate(-32)"/><ellipse cx="-85" cy="64" rx="38" ry="58" transform="rotate(26)"/></g><g fill="#92a273"><ellipse cx="-101" cy="-24" rx="23" ry="48" transform="rotate(12)"/><ellipse cx="57" cy="-55" rx="27" ry="55" transform="rotate(-15)"/><ellipse cx="15" cy="101" rx="28" ry="46" transform="rotate(32)"/></g><g fill="#b9533e" stroke="#913e2d" stroke-width="2"><circle cx="-45" cy="-104" r="31"/><circle cx="109" cy="16" r="31"/><circle cx="-91" cy="74" r="30"/><circle cx="48" cy="113" r="28"/></g><g fill="#e2af68" stroke="#c5914a" stroke-width="3"><rect x="-65" y="-48" width="134" height="92" rx="30" transform="rotate(-20)"/><path d="M-45-53l48 77m-18-87l48 77m-17-90l44 70"/></g><g fill="#faf3de"><circle cx="-20" cy="-19" r="7"/><circle cx="66" cy="74" r="6"/><circle cx="-63" cy="58" r="8"/><circle cx="98" cy="-52" r="8"/><circle cx="-101" cy="-61" r="6"/></g><g stroke="#354d38" stroke-width="4" fill="none" stroke-linecap="round"><path d="M-30 65l70-122M-15 42l-20-30m37 0l26-2m-10-26l-15-25"/></g></g><g transform="translate(98 111) rotate(17)"><circle r="66" fill="#faf3de"/><circle r="54" fill="#d6a644"/><circle r="47" fill="#f2d677"/><path d="M0-46v92M-40-23l80 46M-40 23l80-46" stroke="#faf3de" stroke-width="5"/><circle r="5" fill="#faf3de"/></g><g stroke="#7c7768" stroke-width="8" fill="none" stroke-linecap="round" transform="translate(684 324) rotate(16)"><path d="M0-100v210M-19-100v48q19 35 38 0v-48M63-100q-30 90 0 108v102"/></g><g fill="#526b57" transform="translate(68 556) rotate(-38)"><path d="M0 0l90-100" stroke="#526b57" stroke-width="4"/><ellipse cx="21" cy="-44" rx="12" ry="24" transform="rotate(-15)"/><ellipse cx="53" cy="-33" rx="24" ry="11"/><ellipse cx="43" cy="-76" rx="11" ry="23"/><ellipse cx="82" cy="-68" rx="24" ry="10"/></g><text x="738" y="620" text-anchor="end" font-family="Georgia,serif" font-size="17" fill="#526b57">le goût de se retrouver</text></svg>
